<?xml version="1.0" encoding="iso-8859-1"?>
<!-- Uploaded to: SVG Repo, www.svgrepo.com, Generator: SVG Repo Mixer Tools -->
<!DOCTYPE svg PUBLIC "-//W3C//DTD SVG 1.1//EN" "http://www.w3.org/Graphics/SVG/1.1/DTD/svg11.dtd">
<svg fill="#000000" height="800px" width="800px" version="1.1" id="Capa_1" xmlns="http://www.w3.org/2000/svg" xmlns:xlink="http://www.w3.org/1999/xlink" 
	 viewBox="0 0 230 230" xml:space="preserve">
<path d="M202.35,20.536C188.735,8.674,169.403,1.592,150.637,1.592c-12.455,0-24.691,3.055-35.638,8.866
	c-10.945-5.81-23.18-8.865-35.633-8.866c-18.768-0.001-38.1,7.081-51.714,18.943c-9.817,8.553-17.194,19.309-21.929,31.97
	C1.557,63.646-0.35,75.784,0.053,88.581c0.749,23.786,9.285,47.851,24.685,69.593c9.355,13.207,23.787,26.735,44.121,41.36
	c13.765,9.9,25.445,16.758,25.936,17.045L115,228.408l20.207-11.828c0.49-0.288,12.171-7.145,25.936-17.045
	c20.335-14.625,34.768-28.154,44.121-41.36c15.399-21.743,23.935-45.807,24.684-69.593c0.403-12.797-1.504-24.935-5.67-36.075
	C219.543,39.846,212.166,29.09,202.35,20.536z M172.622,135.055c-16.063,22.678-57.622,47.004-57.622,47.004
	s-41.558-24.327-57.622-47.004c-22.382-31.601-22.725-67.566-3.449-84.361c5.368-4.678,14.887-9.102,25.434-9.101
	c12.101,0.001,25.555,5.826,35.637,23.772c10.083-17.949,23.535-23.772,35.636-23.772c10.546,0,20.066,4.424,25.435,9.101
	C195.346,67.489,195.003,103.453,172.622,135.055z"/>
</svg>