<?xml version="1.0" encoding="iso-8859-1"?>
<!-- Uploaded to: SVG Repo, www.svgrepo.com, Generator: SVG Repo Mixer Tools -->
<!DOCTYPE svg PUBLIC "-//W3C//DTD SVG 1.1//EN" "http://www.w3.org/Graphics/SVG/1.1/DTD/svg11.dtd">
<svg height="800px" width="800px" version="1.1" id="Capa_1" xmlns="http://www.w3.org/2000/svg" xmlns:xlink="http://www.w3.org/1999/xlink" 
	 viewBox="0 0 407.217 407.217" xml:space="preserve">
<g>
	<path d="M404.878,123.767c3.89,7.68,3.15,10.27-3.89,17.22c-4.43,4.37-5.69,12.77-2.13,17.64c5.63,7.73,7.88,14.75,2.18,24.2
		c-3.37,5.61-2.27,13.86-10.4,17.6c9.7,11.1,10.27,22.37,3,33.98c-7.02,11.2-18,15.7-31.34,17.19c1.36,5.4,2.86,10.23,3.79,15.17
		c2.45,12.96-3.82,20.78-17.04,20.89c-5.8,0.05-11.62-0.97-18.52-1.61c-7.78,8.12-14.64,18.15-28.17,15.14
		c-4.53,4.13-8.79,8.01-13.11,11.95c4.42,15.96-3.85,22.25-23.43,18.61c-5.75,4.62-10.98,8.82-17.87,14.36
		c-0.37,1.23-1.34,4.76-2.47,8.24c-3.09,9.5-10.53,15.1-20.46,15.52c-2.93,0.13-6.42-0.73-8.67,0.57
		c-6.96,3.99-12.6,1.89-17.79-2.67c-13.54,9.65-16.43,8.95-24.87-5.63c-13.5-3.33-14.07-3.98-14.87-16.3
		c-4.34-3.6-8.17-6.79-12.64-10.51c-6.56,2.12-14.13,3.33-21.33-1.02c-6.77-4.09-7.68-8.92-4.07-20.41
		c-6.71-6.66-13.98-11.98-23.4-15.08c-5.34-1.76-9.29-7.69-14.56-12.36c-9.58,7.71-21.16,10.18-32.91,2.03
		c-9.1-6.32-10.57-16.75-6.2-35.12c-35.5-4.1-42.36-19.22-26.89-50.32c-7.18-1.82-11.92-5.58-10.38-13.95
		c0.21-1.15-0.65-2.96-1.6-3.8c-7.74-6.89-4.95-14.81-0.25-20.83c5.17-6.62,6.86-13.38,6.7-21.83c-0.5-0.39-1.36-1.05-2.19-1.74
		c-7.49-6.27-8.03-8.48-3.53-16.73c2.53-4.63,5.79-8.13,4.14-14.86c-1.65-6.78,5.39-10.38,11.06-12.53
		c2.49-20.97,2.49-20.97,19.69-27.39c2.31-5.57,3.17-12.3,6.99-15.5c3.6-3.02,10.32-2.32,16.87-3.47c3.41-6.27,9.8-8.52,17.96-7.32
		c2.18,0.32,4.74-0.99,6.93-1.98c8.73-3.95,15.68-1.49,19.84,7.41c1.75,3.76,3.15,7.68,5.72,14c1.94-4.76,2.8-6.92,3.69-9.07
		c1.67-4.04,2.72-8.5,5.14-12.03c7.9-11.52,20.24-11.1,27.75,0.66c1.58,2.47,2.82,5.15,3.38,6.17c8.16,2.44,15.34,3.73,21.74,6.72
		c7.31,3.4,9.45,10.45,7.1,19.13c0.92-0.14,1.83-0.29,2.75-0.43c0.76-1.65,1.59-3.27,2.27-4.95c2.07-5.08,3.38-10.63,6.27-15.19
		c6.49-10.25,15.28-10.92,23.8-2.49c1.29,1.28,2.3,2.84,3.67,4.56c11.75,2.02,21.21-11.77,33.81-4.3c1.44-2.69,2.45-4.52,3.41-6.37
		c4.9-9.45,13.87-13.16,24.04-10.11c5.38,1.62,9.01,4.79,10.31,10.39c0.83,3.54,1.71,7.07,3.12,12.94
		c1.68-5.22,2.52-8.38,3.71-11.39c3.21-8.17,8.91-10.86,16.6-6.6c4.57,2.53,8.27,2.86,13.23,1.74c8.35-1.88,12.18,0.66,18.24,9.33
		c5.81,1.31,11.9,1.18,15.8,4.04c3.06,2.25,3.42,8.18,5.56,14.06c9.64,3.53,18.26,10.32,17.41,24.17c2.81,1.68,5.3,3.2,7.82,4.67
		c3.89,2.29,6.23,5.97,5.28,10.13C399.238,114.517,402.388,118.857,404.878,123.767z M382.308,123.797
		c5.61,1.53,4.99,10.03,13.5,8.52C393.288,121.247,390.158,119.087,382.308,123.797z M380.518,176.907
		c3.9-7.87,12.3,2.36,16.81-4.93c-3-7.42-7.96-11.74-16.99-12.11c-6.39-0.27-12.7-2.6-19.04-4.03c-1.51-0.34-3.01-0.72-4.51-1.09
		c-0.3,0.82-0.61,1.63-0.92,2.44c1.82,0.88,3.64,1.76,5.46,2.65c6.33,3.07,10.37,11.42,8.04,17.51c-2.34,6.16-7.17,4.98-11.98,3.47
		c-0.48-0.16-1.2,0.43-1.64,0.6c-0.65,6.5-1.3,12.9-2.04,20.34c6.21-1.5,12.46-1.37,16.35-4.33c5.82-4.44,11.75-6.84,18.48-6.81
		C392.538,181.577,380.678,182.847,380.518,176.907z M393.198,109.267c-4.42-2.26-7.63-3.9-11.04-5.65
		c-3.3,4.4-5.87,7.83-9.78,13.04C381.548,118.147,386.808,114.947,393.198,109.267z M377.668,237.937
		c7.6-2.11,10.62-7.78,9.64-16.15c-1.04-8.95-6.58-15.41-13.83-15.91c-13.93-0.97-25.1,3.89-32.56,15.46
		c0.61,13.8,9.22,18.17,19.66,19.16C366.168,241.027,372.138,239.477,377.668,237.937z M374.668,153.207
		c7.38,1.39,12.31-2.62,11.97-8.96c-0.63-11.55-15.09-23.68-27.31-22.99c-1.68,5.89-3.36,11.76-5.41,18.94
		C359.308,146.677,366.068,151.587,374.668,153.207z M357.088,113.137c12.76-0.82,23.81-17.51,20.18-27.3
		c-1.51-4.06-4.69-5.86-8.64-5.17c-5.01,0.87-10.06,2.1-14.78,3.95c-6.24,2.45-9.6,7.81-11.17,14.08c-1.53,6.09,4.96,6.38,7.66,9.37
		C352.548,110.517,355.698,112.127,357.088,113.137z M363.808,173.487c-1.63-3.17-3.27-6.34-4.91-9.52
		c-1.14,0.51-2.28,1.02-3.42,1.53C355.308,170.017,357.798,172.807,363.808,173.487z M352.028,277.757
		c4.38-3.18,5.38-7.77,1.95-14.88c-3.15-6.51-7.27-12.54-10.66-18.29c-6.97,1.66-12.6,2.99-19.48,4.62
		c1.28,5.6,1.9,11.19,3.93,16.21c1.71,4.24,4.52,8.37,7.82,11.54C339.678,280.877,347.908,280.747,352.028,277.757z M339.288,87.297
		c20.39-18.59,20.48-18.75,13.04-28.23c-1.12,1.73-1.79,2.62-2.29,3.59c-1.55,2.95-3.13,6.8-7.07,4.94c-1.7-0.8-2.44-4.67-2.71-7.24
		c-0.58-5.48-2.23-9.79-8.37-11.71c-2.76,3.12-5.25,5.94-8.39,9.5c-1.81-3.37-2.64-6.41-4.62-8.17c-1.89-1.67-5.14-2.98-7.48-2.59
		c-1.48,0.25-3.32,3.88-3.36,6.03c-0.1,4.25,0.94,8.52,1.5,12.72C330.438,64.357,330.608,64.477,339.288,87.297z M338.018,137.187
		c7.12-0.22,13.25-5.82,13.23-12.08c-0.02-6.59-4.48-11.64-10.22-11.59c-8.44,0.08-13.37,4.24-13.37,11.29
		C327.668,130.547,333.348,137.337,338.018,137.187z M349.028,160.997c0.55-6.67-0.55-13.07-3.39-16.89
		c-7.41-2.46-12.83-4.27-18.23-6.08c0.04-0.13,0.08-0.25,0.12-0.38c-0.13,0.03-0.27,0.06-0.4,0.08c-1.61-3.96-3.04-8.01-4.9-11.85
		c-4.37-9.01-16.41-12.62-23.09-7.1c-6.05,4.99-8.68,14.43-5.5,19.71c3.47,5.77,11.65,7.53,19.66,4.11
		c2.02-0.86,3.79-2.37,5.84-3.06c2.58-0.86,5.32-1.24,7.99-1.81c0.03,0.08,0.07,0.16,0.1,0.24c0.06,0.02,0.12,0.04,0.18,0.06
		c-1.25,4.02-2.72,7.99-3.67,12.08c-1.4,6.01-3.11,12.09-3.36,18.19c-0.27,6.52,3.02,9.15,9.46,9.58
		C340.198,178.567,348.148,171.737,349.028,160.997z M343.858,205.227c3.03-7.45,5.23-15.17,2.94-23.17
		c-8.58,1.11-16.74,2.16-25.39,3.28c-0.95,10.51-5.87,19.19-14.45,26.13c1.84,2.29,3.42,4.24,4.81,5.97
		c6.77-1.1,12.35-3.36,17.44-2.54C337.868,216.297,341.298,211.567,343.858,205.227z M338.268,235.677
		c0.35-6.9-4.1-11.84-10.97-12.17c-8-0.4-10.94,1.78-11.28,8.38c-0.32,5.99,4.09,9.83,11.68,10.2
		C335.188,242.447,338.018,240.727,338.268,235.677z M332.928,106.477c-0.45-4.29-0.83-8.3-1.31-12.3
		c-0.52-4.37-0.81-8.81-1.79-13.07c-1.86-8.03-3.87-9.12-13.36-8.31c-2.18,6.75-6.05,13.07-2.49,20.79
		c3.01,6.54,4.94,13.58,7.82,21.75C326.718,111.417,329.848,108.927,332.928,106.477z M312.148,286.217
		c5.93-6.51,7.16-14.27,5.44-22.59c-1.33-6.42-3.06-12.76-5.06-20.98c-4.96,2.74-9.28,4.21-12.31,7.05
		c-3.03,2.85-5.81,6.81-6.83,10.76c-1.41,5.52-1.37,11.48-1.42,17.26c-0.03,4.63-0.57,9.76,5.26,12.08
		C302.658,291.967,307.908,290.877,312.148,286.217z M312.848,161.617c0.97-4.1,1.77-7.44,2.79-11.75
		c-6.28,1.3-12.04-0.07-18.69,3.93C302.958,156.757,307.608,159.047,312.848,161.617z M300.688,205.657
		c9.52-4.12,14.52-14.18,12.91-24.52c-1.61-10.37-8.36-17.43-18.73-19.08c-8.63-1.38-17.01-0.3-24.37,4.72
		c-6.38,4.36-12.44,9.19-18.68,13.74c-2.79,2.03-5.69,3.91-8.53,5.85c-1.01-0.94-2.02-1.88-3.03-2.82c2.05-3.16,3.86-6.52,6.21-9.45
		c5.08-6.3,10.85-12.08,15.59-18.62c6.54-8.99,11.89-18.62,11.81-30.34c-0.11-17.63-14.01-27.27-30.83-21.53
		c-9.32,3.19-16.39,9.11-19.81,18.01c-3.66,9.52-5.95,19.6-8.41,29.54c-1.51,6.1-2.41,12.28-9.26,14.52
		c-7.63-3.72-9.96-9.89-10.7-17.26c-1.16-11.5-4.35-22.34-10.92-32.07c-6.01-8.9-14.51-13.56-24.94-14.3
		c-12.81-0.92-21.73,7.59-22.43,20.34c-0.48,8.74,0.93,17.1,5.95,24.25c6.32,9.01,13.4,17.5,20.07,26.27
		c2.54,3.35,4.86,6.88,7.24,10.28c-5.34,4.59-7.63,0.32-10.3-1.58c-7.19-5.12-13.95-10.9-21.42-15.54
		c-9.34-5.78-19.58-6.25-29.65-1.77c-8.83,3.92-12.97,12.95-11.68,24.06c1.05,9.08,5.95,14.52,15.31,16.99
		c3.46-5.49,4.49-12.64,11.04-16.97c-0.66,7.5-7.57,12.44-5.87,20.31c9.7-0.54,6.65-11.25,13.61-14.64
		c-1.79,5.83-3.32,10.79-5.15,16.75c4.21,0,7.15,0.39,9.95-0.07c10.83-1.79,21.63-3.81,32.42-5.82c3.32-0.62,6.6-1.5,8.84,3.91
		c-2.07,1.38-4.21,3.07-6.58,4.33c-16.95,8.96-31.47,20.69-40.92,37.61c-2.97,5.31-4.54,11.58-5.75,17.61
		c-0.77,3.77,0.73,7.63,5.11,8.59c2.15-8.01,4.13-15.39,6.12-22.77c0.6,0.15,1.2,0.29,1.8,0.43c-0.98,7.82-1.96,15.64-2.9,23.1
		c5.5,2.11,7.56,0.77,8.49-3.45c1.05-4.83,2.65-9.55,4.01-14.31c1.53,2.87,1.37,5.35,1.04,7.8c-0.38,2.77-0.91,5.52-1.43,8.57
		c9.35-0.24,4.71-10.27,10.31-12.52c0.46,2.25,0.92,4.46,1.37,6.68c1.2-0.25,1.65-0.21,1.91-0.42
		c10.55-8.67,20.73-17.62,26.92-30.26c0.8-1.63,3.75-2.21,5.71-3.28c0.36,2.27,1.45,4.72,0.93,6.75c-0.81,3.15-2.85,5.96-4.14,9.01
		c-3.11,7.34-5.96,14.77-5.11,24.68c5.93-6.46,10.87-11.85,15.82-17.24c0.67,0.58,1.34,1.16,2.01,1.75
		c-4.22,5.29-8.43,10.59-12.66,15.88c-8.43,10.55-8.56,21.16-0.46,32.75c2.09-3.53,4.2-7.11,6.31-10.68
		c0.75,0.37,1.51,0.74,2.27,1.11c-1.73,4.17-3.46,8.34-5.16,12.42c15.6,9.26,33.07,1.76,35.1-15.4c1.92-16.25,0.67-32.38-6.89-47.44
		c-1.32-2.62-2.89-5.26-3.45-8.07c-0.34-1.73,1.03-3.79,1.64-5.7c1.7,0.97,4.26,1.53,4.97,2.99c5.98,12.28,15.44,21.65,26.04,29.58
		c5.99,4.49,13.42,7.9,20.72,9.64c12.85,3.07,19.5-4.27,15.29-16.75c-2.41-7.17-6.49-14.02-10.94-20.21
		c-9.2-12.81-21.78-21.77-35.75-28.92c-1.96-1-4.61-3.72-4.39-5.28c0.56-3.94,4.23-3.22,7.12-2.64c7.2,1.42,14.48,2.66,21.55,4.59
		C276.078,212.917,288.588,210.917,300.688,205.657z M308.908,235.707c0.17-1.87,0.66-4.41,0.57-6.93
		c-0.22-5.84-7.54-13.9-12.45-13.21c-10.29,1.43-20.5,3.4-30.72,5.15C275.698,238.457,291.328,239.557,308.908,235.707z
		 M306.188,110.497c0.26,0.2,3.35-2.06,3.19-2.74c-0.46-2.03-1.89-3.83-4.68-8.86c-1.68,3.62-3.36,5.55-2.93,6.68
		C302.508,107.537,304.438,109.147,306.188,110.497z M304.748,78.517c0.23-3.71,1.13-7.15-2.88-9.62c-4.02-2.48-7.95-1.85-11.3,0.53
		c-3.48,2.47-6.32,5.83-9.15,8.54c5.25,13.91,10.83,18.31,23.24,18.67C304.658,90.037,304.408,84.257,304.748,78.517z
		 M290.308,117.607c2.21-1.75,4.98-3.18,2.09-7.38C291.698,112.687,290.998,115.147,290.308,117.607c-0.16,0.13-0.31,0.25-0.46,0.38
		c-0.06,0.15-0.12,0.29-0.18,0.44c-7.75,2.97-8.61,5.29-7.16,17.62c2.41-5.88,4.79-11.74,7.16-17.62c0.15-0.06,0.3-0.12,0.46-0.18
		C290.188,118.037,290.248,117.817,290.308,117.607z M290.248,251.407c1.65-3.27,2.48-4.89,3.74-7.38c-3.22,0.3-5.12,0.48-7.83,0.73
		C287.538,247.007,288.408,248.417,290.248,251.407z M271.958,157.037c7.99-1.23,14.9-2.3,22.84-3.53
		c-3.15-5.91-5.55-9.78-11.83-9.28C274.908,144.867,274.428,151.107,271.958,157.037z M290.448,296.557
		c-2.22-3.85-4.38-7.58-6.68-11.57c-4.32,0.58-8.62,1.16-12.74,1.72c-4.71,6.19-4.11,11.67,1.76,17.58
		C278.708,302.517,287.378,306.907,290.448,296.557z M284.168,61.617c1.9-4.96,1.48-10.03-1.52-14.63
		c-4.08-6.25-10.26-5.99-13.22,0.94c-1.95,4.54-2.78,9.55-3.99,13.95c4.74,3.66,8.61,6.65,13.13,10.13
		C280.478,68.527,282.788,65.247,284.168,61.617z M283.148,111.017c3.68-3.05,1.71-7.82-0.25-11.95c-1.3-2.75-3.92-6.3-6.45-6.77
		c-5.53-1.03-11.39-0.32-18.15-0.32C266.978,98.617,274.858,104.657,283.148,111.017z M276.788,81.387c0.55-3.88-3.46-8.1-7.28-8.16
		c-3.75-0.05-6.58,3.06-6.52,7.3c0.07,4.61,2.76,6.4,7.07,6.61C274.198,87.347,276.268,85.027,276.788,81.387z M261.308,316.697
		c6.5,9.98,7.29,10.33,19.37,8.06C276.898,311.447,269.658,308.687,261.308,316.697z M262.408,295.017c1.1-3.29,2.08-6.23,3.19-9.58
		c-5.77-2.14-10.97-4.06-17.67-6.55c1.53,6.06,2.65,10.46,3.84,15.15C255.508,294.377,258.648,294.667,262.408,295.017z
		 M253.818,308.117c3.21,3.1,6.35,1.67,11.4-5.14c-4.95-1.54-8.56-5.71-12.53-1.24C251.748,302.797,252.498,306.837,253.818,308.117
		z M255.138,81.277c2.11-4.83,4.11-9.42,6.13-14.04c-4.17-7.17-10.63-8.86-18.05-6.91c-6.8,1.79-8.11,6.79-4.01,12.55
		C243.178,78.457,248.988,80.187,255.138,81.277z M252.518,321.227c0.03-7.5-2.44-10.72-8.05-10.5
		c-6.54,0.25-12.37,6.63-12.08,13.22c0.23,5.48,5.58,10.46,10.93,10.19C248.848,333.847,252.488,328.727,252.518,321.227z
		 M247.088,300.917c1.94-7.61-4.8-9.32-10.81-13.22c-0.78,6.53-1.43,11.98-2.35,19.73
		C239.288,303.897,245.508,307.137,247.088,300.917z M237.208,97.707c4.41-2.94,11.05-0.6,12.78-8.35
		c-4.77-2.08-9.55-4.17-14.41-6.29c-2.01,2.95-3.54,5.2-4.91,7.2C233.238,93.187,235.128,95.337,237.208,97.707z M240.448,283.047
		c1.49-6.66,2.39-12.15-6.13-14.51C235.368,273.847,232.448,279.807,240.448,283.047z M229.478,357.857
		c4.52-3.69,8.09-8.8,6.85-14.28c-0.98-4.31-5.35-7.86-7.93-11.37c-3.55,6.36-6.56,11.75-9.56,17.15c-1.38,0.76-1.33,2.22-1.1,3.66
		C219.038,361.227,223.208,362.967,229.478,357.857z M219.818,88.787c11.4-5.95,11.7-6.89,7.19-23.78
		C217.968,74.197,215.788,81.887,219.818,88.787z M230.598,99.767c-4.95-5.75-9.08-3.41-12.74-0.14c-5.1,4.56-5.09,6.6-0.97,15.06
		C221.298,109.887,225.638,105.167,230.598,99.767z M207.478,343.887c6.3-1.33,11.08-2.48,10.98-8.74c-0.04-3.05-1.18-6.09-1.91-9.5
		c-3.96,0.88-6.76,1.5-10.99,2.44C206.258,333.837,206.848,338.647,207.478,343.887z M212.958,123.687
		c-0.95-0.26-1.89-0.53-2.83-0.79c-3.83,6.96-14.4,11.92-4.88,24.44C208.128,138.507,210.538,131.097,212.958,123.687z
		 M206.928,359.337c3.82-2.1,4.92-5.62,2.53-7.46c-3.85-2.98-8.76-6.05-13.35-6.27c-7.63-0.36-14.17-1.66-19.38-10.3
		c-2.86,5.95-4.72,9.82-7.55,15.67c6.89-1.37,11.14-2.23,15.4-3.08c0.88,4.59,1.59,8.26,2.62,13.62c5.12-3.27,8.61-5.5,12.11-7.74
		C202.088,355.807,204.578,357.617,206.928,359.337z M211.778,91.207c-6.63-1.59-10.3-0.41-10.49,3.98
		c-0.07,1.66,2.13,4.5,3.79,4.94C209.618,101.327,211.058,99.147,211.778,91.207z M203.848,86.017c7.7-5.79,8.96-20.7,2.61-30.85
		C196.778,61.157,195.658,74.427,203.848,86.017z M201.078,126.087c1.93-5.79,3.87-11.59,5.83-17.46
		c-4.77-2.41-8.19-4.15-11.53-5.84c-6.34,6.1-6.32,6.09-2.84,12.36c1.92,3.45,3.77,6.94,5.65,10.42
		C199.158,125.737,200.118,125.917,201.078,126.087z M196.898,338.367c1.06-3.86,2.18-7.92,3.33-12.07
		c-2.91-1.18-5.26-2.23-7.67-3.07c-1.3-0.45-2.72-0.52-3.98-0.74C183.138,336.327,184.718,339.427,196.898,338.367z
		 M184.338,104.147c4.28-4.28,8.23-8.24,13.1-13.1c-14.49-7.55-18.25-7.69-26.94-1.59
		C172.468,96.647,178.998,99.477,184.338,104.147z M177.448,323.547c0.07-6.99-5.62-12.92-12.31-12.84
		c-5.01,0.06-7.71,3.44-7.89,9.83c-0.2,7.48,4.19,13.55,9.85,13.62C172.608,334.227,177.388,329.327,177.448,323.547z
		 M169.848,282.947c8.12-2.59,3.76-9.79,7.7-15.97C167.708,273.287,167.708,273.287,169.848,282.947z M175.968,305.597
		c-0.69-6.04-1.28-11.28-1.99-17.51c-12.61,7.16-12.74,7.43-8.87,16.4C168.518,304.837,171.968,305.187,175.968,305.597z
		 M155.018,81.207c9.4-1.48,16.6-5.25,18.86-15.14c-9.41-9.23-15.76-8.84-25.03,1.22C150.868,71.837,152.878,76.377,155.018,81.207z
		 M158.498,293.857c1.12-4.73,2.16-9.13,3.6-15.18c-6.91,2.71-12.08,4.74-17.91,7.02c1.36,3.39,2.52,6.25,3.81,9.46
		C151.648,294.707,154.798,294.317,158.498,293.857z M158.318,304.067c0.1-3.38-2.53-5.18-5.99-4c-2.51,0.86-4.8,2.37-7.18,3.59
		c-0.01,0.87-0.01,1.74-0.02,2.61c3.03,1.01,6.05,2.7,9.08,2.72C155.648,308.997,158.268,305.837,158.318,304.067z M151.098,92.587
		c0.03-0.52,0.05-1.04,0.07-1.56c-3.86,0.53-7.71,1.33-11.59,1.54c-12.54,0.68-16.74,7.54-11.93,17.89
		C135.338,104.597,143.218,98.597,151.098,92.587z M140.138,87.157c4.37-0.02,6.6-2.31,7.49-8.26c-1.72-1.47-3.88-4.44-6.73-5.44
		c-3.25-1.14-7.61,3.52-7.81,7.29C132.888,84.457,135.968,87.177,140.138,87.157z M144.428,62.167c-1.13-4.5-1.86-9.62-3.8-14.23
		c-0.95-2.25-4.11-4.83-6.36-4.91c-2.18-0.08-5.23,2.36-6.58,4.52c-4.48,7.12-2.56,15.45,4.75,23.51
		C135.838,68.537,139.258,65.997,144.428,62.167z M148.848,315.887c-9.55-6.74-16.22-3.83-19.19,8.36
		C140.638,327.787,143.068,326.727,148.848,315.887z M137.548,303.897c5.42-8.31,5.42-8.31,1.44-17.28
		c-4.04-0.5-8.33-1.03-12.62-1.56c-2.34,3.93-4.54,7.63-6.87,11.54C122.708,306.347,130.868,303.347,137.548,303.897z
		 M126.758,236.277c8.19-1.81,12.83-9.36,17.37-15.61c-10.39-1.7-20.06-3.48-29.8-4.74c-2.21-0.28-5.05,0.65-6.92,1.98
		c-6.31,4.49-8.82,10.46-5.13,18.73C110.758,236.637,119.098,237.977,126.758,236.277z M116.968,153.997
		c7.16,1.03,13.9,1.99,21.63,3.1c-5.45-11.32-8.26-14.37-13.49-13.11C120.608,145.077,116.498,147.577,116.968,153.997z
		 M127.258,82.747c0.81-1.4,1.04-3.7,0.51-5.23c-3.28-9.48-14.76-11.99-22.35-5.49c0,8.26,0,16.16,0,25.15
		C116.508,97.567,122.488,90.947,127.258,82.747z M127.398,136.227c0.81-4.35,1.84-9.27,0.04-12.73c-2.54-4.9-7.16-8.74-10.89-13.03
		c-0.52,0.31-1.04,0.63-1.56,0.94c2.39,3.62,5.18,7.05,7.08,10.91C124.248,126.757,125.648,131.577,127.398,136.227z
		 M120.358,250.677c1.33-2.12,2.24-3.56,4.15-6.6c-3.88,0.23-5.89,0.34-8.88,0.52C117.478,246.977,118.718,248.577,120.358,250.677z
		 M117.908,280.007c0.08-6.86-0.17-13.8-1.21-20.57c-0.46-2.96-2.67-6.19-5.03-8.2c-3.78-3.21-8.34-5.5-14.77-9.57
		c-1.86,11.64-3.63,20.53-4.59,29.52c-0.7,6.55,2.34,12.01,7.14,16.53c4.03,3.81,8.56,3.5,13.33,2.13
		C117.908,288.377,117.858,283.827,117.908,280.007z M116.868,137.767c2.28-5.12-0.56-14.37-5.79-18.84
		c-4.26-3.64-10.01-4.33-15.19-0.62c-3.35,2.39-5.74,6.17-8.44,9.42c-2.43,2.91-4.7,5.94-7.04,8.91h-0.01l0.01,0.01
		c-2.7,7.48-10.06,4.04-14.89,6.28c-6.11,12.13-5.87,22.62,0.64,29.73c4.22,4.61,12.75,6.8,18.13,4.64
		c4.85-1.93,7.03-7.12,5.7-15.09c-0.65-3.93-2-7.78-3.44-11.51c-1.84-4.77-4.08-9.38-6.14-14.05c5.09,1.8,10.3,3.32,15.24,5.49
		C104.578,146.067,113.958,144.317,116.868,137.767z M111.958,154.037c-0.1-0.72-0.2-1.44-0.3-2.16
		c-5.42-0.58-10.83-1.16-17.42-1.86c1.33,4.59,2.3,7.94,3.36,11.57c2.9-1.47,5.15-2.59,7.38-3.76
		C107.318,156.597,109.628,155.307,111.958,154.037z M107.898,107.257c0.28-1.27-1.61-4.23-2.78-4.39c-5-0.66-4.03,3.52-4.68,6.46
		C103.868,111.337,106.928,111.767,107.898,107.257z M100.948,66.097c0.33-4.33,1.08-8.71,0.79-13.02c-0.14-2.12-2.12-5.73-3.43-5.8
		c-2.45-0.14-5.47,1.31-7.39,3.04c-1.94,1.76-2.84,4.68-4.81,8.18c-3.27-3.84-5.71-6.7-8.09-9.5c-10.62,2.48-5.89,12.21-9.56,19.66
		c-4.05-3.18-7.48-5.88-11.82-9.29c-1.4,2.4-3.86,4.68-3.47,6.29c0.99,4.17,2.42,8.77,5.18,11.84c3.52,3.91,8.52,6.49,12.91,9.66
		C77.128,65.877,78.518,64.877,100.948,66.097z M98.648,217.107c1.42-1.68,2.95-3.49,3.08-3.65c-5.6-10.32-10.38-19.11-15.45-28.45
		c-6.35-0.84-14.19-1.87-23.77-3.13c-0.89,13.03,1.87,24.09,9.79,32.24C81.978,215.217,90.188,216.147,98.648,217.107z
		 M87.348,114.337c9.81-16.31,11.15-25.74,6.03-42.3c-10.05,0.93-12.22,2.34-13.51,10.26c-1.3,7.93-1.88,15.98-2.8,24.21
		C80.618,109.207,83.958,111.757,87.348,114.337z M92.458,237.677c3.9-4.51,1.27-8.88-1.04-12.87c-14.5-5.8-23.45,4.58-17.13,16.45
		C80.728,242.577,87.388,243.567,92.458,237.677z M64.558,278.997c13.05-0.43,20.44-11.96,20.43-30.09
		c-5.66-1.34-11.27-2.67-16.97-4.03c-14.6,15.72-17.16,26.37-7.88,33.28c2.85-5.21,5.7-10.43,8.55-15.65
		c0.58,0.25,1.17,0.51,1.75,0.76C68.518,268.417,66.588,273.557,64.558,278.997z M72.358,137.207c4.84-0.03,9.85-6.54,9.79-12.71
		c-0.06-7.23-4.69-11.05-13.32-11c-6,0.04-9.77,4.66-9.65,11.85C59.268,131.617,65.528,137.247,72.358,137.207z M66.468,231.387
		c0.81-3.15,2.2-6.15,3.24-8.97c-8.1-12.75-19.09-17.23-32.59-16.62c-5.76,0.26-9.63,2.52-10.96,8.37c1.68,0.83,3.04,1.5,4.32,2.14
		c-6.22,16.5-6.22,16.5-0.74,19.56c3.16-3.47,3.38-9.22,9.23-12.48c-2,5.74-3.5,10.06-5.43,15.59c3.58-0.43,6.97-1.8,7.95-0.8
		c4.94,5.05,8.96,2.88,13.35-0.51c0.9-0.7,2.56-0.8,3.79-0.63C63.158,237.677,65.388,235.627,66.468,231.387z M58.738,109.237
		c2.75-2.38,5.71-4.51,9.11-7.18c-3.43-14.36-14.77-22.88-27.88-21.47c-4.79,0.51-7.31,3.15-7.36,7.91
		c-0.11,9.5,3.72,17.14,11.6,22.41C49.608,114.507,53.528,113.757,58.738,109.237z M56.458,201.397c-0.74-7.4-1.39-13.86-2.03-20.34
		c-9.38,1.33-12.48,0.49-14.02-3.8c-2.03-5.61,2.07-14.16,8.43-17.39c1.24-0.64,2.83-0.72,3.89-1.54c0.53-0.41,0.24-1.9,0.46-4.7
		c-8.86,5.2-16.89,6.8-25.62,6.64c-8.11-0.14-12.27,4.56-13.74,13.25c4.27,5,12.53-4.76,15.97,4.14c-8.05,6.78-8.05,6.78-8.79,11.83
		c4.8,1.6,10.36,2.1,14.04,5C41.518,199.577,48.738,199.787,56.458,201.397z M56.788,139.317c-1.43-3.16-2.96-5.7-3.72-8.46
		c-0.86-3.12-1.02-6.43-1.46-9.56c-11.16-0.8-22.98,6.71-26.48,17.45c-1.13,3.48-1.22,8.37,0.43,11.42
		c2.34,4.3,7.65,4.03,11.97,2.62C45.318,150.247,52.038,145.997,56.788,139.317z M48.278,174.737c6.9-6.28,6.9-6.28,2.86-10.94
		c-1.82,3.58-3.44,6.78-5.07,9.97C46.808,174.087,47.538,174.407,48.278,174.737z M37.098,115.707c-3.22-4.2-5.83-7.61-9.62-12.56
		c-3.66,2.45-6.62,4.43-10.91,7.3C24.038,114.217,28.888,119.377,37.098,115.707z M28.248,121.827
		c-10.06-0.95-10.41-0.68-14.65,10.16C21.998,133.867,22.818,126.317,28.248,121.827z"/>
	<path style="fill:#006837;" d="M395.808,132.317c-8.51,1.51-7.89-6.99-13.5-8.52C390.158,119.087,393.288,121.247,395.808,132.317z
		"/>
	<path style="fill:#006837;" d="M397.328,171.977c-4.51,7.29-12.91-2.94-16.81,4.93c0.16,5.94,12.02,4.67,8.02,13.71
		c-6.73-0.03-12.66,2.37-18.48,6.81c-3.89,2.96-10.14,2.83-16.35,4.33c0.74-7.44,1.39-13.84,2.04-20.34
		c0.44-0.17,1.16-0.76,1.64-0.6c4.81,1.51,9.64,2.69,11.98-3.47c2.33-6.09-1.71-14.44-8.04-17.51c-1.82-0.89-3.64-1.77-5.46-2.65
		c0.31-0.81,0.62-1.62,0.92-2.44c1.5,0.37,3,0.75,4.51,1.09c6.34,1.43,12.65,3.76,19.04,4.03
		C389.368,160.237,394.328,164.557,397.328,171.977z"/>
	<path style="fill:#006837;" d="M382.158,103.617c3.41,1.75,6.62,3.39,11.04,5.65c-6.39,5.68-11.65,8.88-20.82,7.39
		C376.288,111.447,378.858,108.017,382.158,103.617z"/>
	<path style="fill:#C1272D;" d="M387.308,221.787c0.98,8.37-2.04,14.04-9.64,16.15c-5.53,1.54-11.5,3.09-17.09,2.56
		c-10.44-0.99-19.05-5.36-19.66-19.16c7.46-11.57,18.63-16.43,32.56-15.46C380.728,206.377,386.268,212.837,387.308,221.787z"/>
	<path style="fill:#F57547;" d="M386.638,144.247c0.34,6.34-4.59,10.35-11.97,8.96c-8.6-1.62-15.36-6.53-20.75-13.01
		c2.05-7.18,3.73-13.05,5.41-18.94C371.548,120.567,386.008,132.697,386.638,144.247z"/>
	<path style="fill:#F57547;" d="M377.268,85.837c3.63,9.79-7.42,26.48-20.18,27.3c-1.39-1.01-4.54-2.62-6.75-5.07
		c-2.7-2.99-9.19-3.28-7.66-9.37c1.57-6.27,4.93-11.63,11.17-14.08c4.72-1.85,9.77-3.08,14.78-3.95
		C372.578,79.977,375.758,81.777,377.268,85.837z"/>
	<path style="fill:#006837;" d="M358.898,163.967c1.64,3.18,3.28,6.35,4.91,9.52c-6.01-0.68-8.5-3.47-8.33-7.99
		C356.618,164.987,357.758,164.477,358.898,163.967z"/>
	<path style="fill:#C1272D;" d="M353.978,262.877c3.43,7.11,2.43,11.7-1.95,14.88c-4.12,2.99-12.35,3.12-16.44-0.8
		c-3.3-3.17-6.11-7.3-7.82-11.54c-2.03-5.02-2.65-10.61-3.93-16.21c6.88-1.63,12.51-2.96,19.48-4.62
		C346.708,250.337,350.828,256.367,353.978,262.877z"/>
	<path style="fill:#006837;" d="M352.328,59.067c7.44,9.48,7.35,9.64-13.04,28.23c-8.68-22.82-8.85-22.94-29.75-21.16
		c-0.56-4.2-1.6-8.47-1.5-12.72c0.04-2.15,1.88-5.78,3.36-6.03c2.34-0.39,5.59,0.92,7.48,2.59c1.98,1.76,2.81,4.8,4.62,8.17
		c3.14-3.56,5.63-6.38,8.39-9.5c6.14,1.92,7.79,6.23,8.37,11.71c0.27,2.57,1.01,6.44,2.71,7.24c3.94,1.86,5.52-1.99,7.07-4.94
		C350.538,61.687,351.208,60.797,352.328,59.067z"/>
	<path style="fill:#FBB03B;" d="M351.248,125.107c0.02,6.26-6.11,11.86-13.23,12.08c-4.67,0.15-10.35-6.64-10.36-12.38
		c0-7.05,4.93-11.21,13.37-11.29C346.768,113.467,351.228,118.517,351.248,125.107z"/>
	<path style="fill:#F57547;" d="M345.638,144.107c2.84,3.82,3.94,10.22,3.39,16.89c-0.88,10.74-8.83,17.57-19.19,16.88
		c-6.44-0.43-9.73-3.06-9.46-9.58c0.25-6.1,1.96-12.18,3.36-18.19c0.95-4.09,2.42-8.06,3.67-12.08
		C332.808,139.837,338.228,141.647,345.638,144.107z"/>
	<path style="fill:#C1272D;" d="M346.798,182.057c2.29,8,0.09,15.72-2.94,23.17c-2.56,6.34-5.99,11.07-14.65,9.67
		c-5.09-0.82-10.67,1.44-17.44,2.54c-1.39-1.73-2.97-3.68-4.81-5.97c8.58-6.94,13.5-15.62,14.45-26.13
		C330.058,184.217,338.218,183.167,346.798,182.057z"/>
	<path style="fill:#FBB03B;" d="M327.298,223.507c6.87,0.33,11.32,5.27,10.97,12.17c-0.25,5.05-3.08,6.77-10.57,6.41
		c-7.59-0.37-12-4.21-11.68-10.2C316.358,225.287,319.298,223.107,327.298,223.507z"/>
	<path style="fill:#F57547;" d="M331.618,94.177c0.48,4,0.86,8.01,1.31,12.3c-3.08,2.45-6.21,4.94-11.13,8.86
		c-2.88-8.17-4.81-15.21-7.82-21.75c-3.56-7.72,0.31-14.04,2.49-20.79c9.49-0.81,11.5,0.28,13.36,8.31
		C330.808,85.367,331.098,89.807,331.618,94.177z"/>
	<path d="M327.528,137.647c-0.04,0.13-0.08,0.25-0.12,0.38c-0.06-0.02-0.12-0.04-0.18-0.06c-0.03-0.08-0.07-0.16-0.1-0.24
		C327.258,137.707,327.398,137.677,327.528,137.647z"/>
	<path style="fill:#F57547;" d="M322.228,125.877c1.86,3.84,3.29,7.89,4.9,11.85c-2.67,0.57-5.41,0.95-7.99,1.81
		c-2.05,0.69-3.82,2.2-5.84,3.06c-8.01,3.42-16.19,1.66-19.66-4.11c-3.18-5.28-0.55-14.72,5.5-19.71
		C305.818,113.257,317.858,116.867,322.228,125.877z"/>
	<path style="fill:#C1272D;" d="M317.588,263.627c1.72,8.32,0.49,16.08-5.44,22.59c-4.24,4.66-9.49,5.75-14.92,3.58
		c-5.83-2.32-5.29-7.45-5.26-12.08c0.05-5.78,0.01-11.74,1.42-17.26c1.02-3.95,3.8-7.91,6.83-10.76c3.03-2.84,7.35-4.31,12.31-7.05
		C314.528,250.867,316.258,257.207,317.588,263.627z"/>
	<path style="fill:#006837;" d="M315.638,149.867c-1.02,4.31-1.82,7.65-2.79,11.75c-5.24-2.57-9.89-4.86-15.9-7.82
		C303.598,149.797,309.358,151.167,315.638,149.867z"/>
	<path style="fill:#F57547;" d="M313.598,181.137c1.61,10.34-3.39,20.4-12.91,24.52c-12.1,5.26-24.61,7.26-37.73,3.69
		c-7.07-1.93-14.35-3.17-21.55-4.59c-2.89-0.58-6.56-1.3-7.12,2.64c-0.22,1.56,2.43,4.28,4.39,5.28
		c13.97,7.15,26.55,16.11,35.75,28.92c4.45,6.19,8.53,13.04,10.94,20.21c4.21,12.48-2.44,19.82-15.29,16.75
		c-7.3-1.74-14.73-5.15-20.72-9.64c-10.6-7.93-20.06-17.3-26.04-29.58c-0.71-1.46-3.27-2.02-4.97-2.99
		c-0.61,1.91-1.98,3.97-1.64,5.7c0.56,2.81,2.13,5.45,3.45,8.07c7.56,15.06,8.81,31.19,6.89,47.44c-2.03,17.16-19.5,24.66-35.1,15.4
		c1.7-4.08,3.43-8.25,5.16-12.42c-0.76-0.37-1.52-0.74-2.27-1.11c-2.11,3.57-4.22,7.15-6.31,10.68c-8.1-11.59-7.97-22.2,0.46-32.75
		c4.23-5.29,8.44-10.59,12.66-15.88c-0.67-0.59-1.34-1.17-2.01-1.75c-4.95,5.39-9.89,10.78-15.82,17.24
		c-0.85-9.91,2-17.34,5.11-24.68c1.29-3.05,3.33-5.86,4.14-9.01c0.52-2.03-0.57-4.48-0.93-6.75c-1.96,1.07-4.91,1.65-5.71,3.28
		c-6.19,12.64-16.37,21.59-26.92,30.26c-0.26,0.21-0.71,0.17-1.91,0.42c-0.45-2.22-0.91-4.43-1.37-6.68
		c-5.6,2.25-0.96,12.28-10.31,12.52c0.52-3.05,1.05-5.8,1.43-8.57c0.33-2.45,0.49-4.93-1.04-7.8c-1.36,4.76-2.96,9.48-4.01,14.31
		c-0.93,4.22-2.99,5.56-8.49,3.45c0.94-7.46,1.92-15.28,2.9-23.1c-0.6-0.14-1.2-0.28-1.8-0.43c-1.99,7.38-3.97,14.76-6.12,22.77
		c-4.38-0.96-5.88-4.82-5.11-8.59c1.21-6.03,2.78-12.3,5.75-17.61c9.45-16.92,23.97-28.65,40.92-37.61
		c2.37-1.26,4.51-2.95,6.58-4.33c-2.24-5.41-5.52-4.53-8.84-3.91c-10.79,2.01-21.59,4.03-32.42,5.82c-2.8,0.46-5.74,0.07-9.95,0.07
		c1.83-5.96,3.36-10.92,5.15-16.75c-6.96,3.39-3.91,14.1-13.61,14.64c-1.7-7.87,5.21-12.81,5.87-20.31
		c-6.55,4.33-7.58,11.48-11.04,16.97c-9.36-2.47-14.26-7.91-15.31-16.99c-1.29-11.11,2.85-20.14,11.68-24.06
		c10.07-4.48,20.31-4.01,29.65,1.77c7.47,4.64,14.23,10.42,21.42,15.54c2.67,1.9,4.96,6.17,10.3,1.58c-2.38-3.4-4.7-6.93-7.24-10.28
		c-6.67-8.77-13.75-17.26-20.07-26.27c-5.02-7.15-6.43-15.51-5.95-24.25c0.7-12.75,9.62-21.26,22.43-20.34
		c10.43,0.74,18.93,5.4,24.94,14.3c6.57,9.73,9.76,20.57,10.92,32.07c0.74,7.37,3.07,13.54,10.7,17.26
		c6.85-2.24,7.75-8.42,9.26-14.52c2.46-9.94,4.75-20.02,8.41-29.54c3.42-8.9,10.49-14.82,19.81-18.01
		c16.82-5.74,30.72,3.9,30.83,21.53c0.08,11.72-5.27,21.35-11.81,30.34c-4.74,6.54-10.51,12.32-15.59,18.62
		c-2.35,2.93-4.16,6.29-6.21,9.45c1.01,0.94,2.02,1.88,3.03,2.82c2.84-1.94,5.74-3.82,8.53-5.85c6.24-4.55,12.3-9.38,18.68-13.74
		c7.36-5.02,15.74-6.1,24.37-4.72C305.238,163.707,311.988,170.767,313.598,181.137z M228.148,215.077
		c2.69-13.25-1.45-24.63-9.69-34.65c-7.55-9.2-18.88-9.27-26.6-0.33c-6.64,7.7-10.51,16.7-10.77,27.02
		c-0.44,17.76,5.4,23.71,23.24,23.76c1.83,0,3.67,0.06,5.5-0.01C222.408,230.447,225.598,227.597,228.148,215.077z M190.058,295.577
		c3.53-5.17,7.05-10.33,10.58-15.49C191.028,284.767,190.008,286.127,190.058,295.577z"/>
	<path style="fill:#C1272D;" d="M309.478,228.777c0.09,2.52-0.4,5.06-0.57,6.93c-17.58,3.85-33.21,2.75-42.6-14.99
		c10.22-1.75,20.43-3.72,30.72-5.15C301.938,214.877,309.258,222.937,309.478,228.777z"/>
	<path style="fill:#006837;" d="M309.378,107.757c0.16,0.68-2.93,2.94-3.19,2.74c-1.75-1.35-3.68-2.96-4.42-4.92
		c-0.43-1.13,1.25-3.06,2.93-6.68C307.488,103.927,308.918,105.727,309.378,107.757z"/>
	<path style="fill:#C1272D;" d="M301.868,68.897c4.01,2.47,3.11,5.91,2.88,9.62c-0.34,5.74-0.09,11.52-0.09,18.12
		c-12.41-0.36-17.99-4.76-23.24-18.67c2.83-2.71,5.67-6.07,9.15-8.54C293.918,67.047,297.848,66.417,301.868,68.897z"/>
	<path style="fill:#006837;" d="M292.398,110.227c2.89,4.2,0.12,5.63-2.09,7.38C290.998,115.147,291.698,112.687,292.398,110.227z"
		/>
	<path style="fill:#006837;" d="M293.988,244.027c-1.26,2.49-2.09,4.11-3.74,7.38c-1.84-2.99-2.71-4.4-4.09-6.65
		C288.868,244.507,290.768,244.327,293.988,244.027z"/>
	<path d="M290.308,117.607c-0.06,0.21-0.12,0.43-0.18,0.64c-0.16,0.06-0.31,0.12-0.46,0.18c0.06-0.15,0.12-0.29,0.18-0.44
		C289.998,117.857,290.148,117.737,290.308,117.607z"/>
	<path style="fill:#006837;" d="M289.668,118.427c-2.37,5.88-4.75,11.74-7.16,17.62
		C281.058,123.717,281.918,121.397,289.668,118.427z"/>
	<path style="fill:#006837;" d="M294.798,153.507c-7.94,1.23-14.85,2.3-22.84,3.53c2.47-5.93,2.95-12.17,11.01-12.81
		C289.248,143.727,291.648,147.597,294.798,153.507z"/>
	<path style="fill:#C1272D;" d="M283.768,284.987c2.3,3.99,4.46,7.72,6.68,11.57c-3.07,10.35-11.74,5.96-17.66,7.73
		c-5.87-5.91-6.47-11.39-1.76-17.58C275.148,286.147,279.448,285.567,283.768,284.987z"/>
	<path style="fill:#C1272D;" d="M282.648,46.987c3,4.6,3.42,9.67,1.52,14.63c-1.38,3.63-3.69,6.91-5.6,10.39
		c-4.52-3.48-8.39-6.47-13.13-10.13c1.21-4.4,2.04-9.41,3.99-13.95C272.388,40.997,278.568,40.737,282.648,46.987z"/>
	<path style="fill:#C1272D;" d="M282.898,99.067c1.96,4.13,3.93,8.9,0.25,11.95c-8.29-6.36-16.17-12.4-24.85-19.04
		c6.76,0,12.62-0.71,18.15,0.32C278.978,92.767,281.598,96.317,282.898,99.067z"/>
	<path style="fill:#FBB03B;" d="M269.508,73.227c3.82,0.06,7.83,4.28,7.28,8.16c-0.52,3.64-2.59,5.96-6.73,5.75
		c-4.31-0.21-7-2-7.07-6.61C262.928,76.287,265.758,73.177,269.508,73.227z"/>
	<path style="fill:#C1272D;" d="M280.678,324.757c-12.08,2.27-12.87,1.92-19.37-8.06
		C269.658,308.687,276.898,311.447,280.678,324.757z"/>
	<path style="fill:#C1272D;" d="M265.598,285.437c-1.11,3.35-2.09,6.29-3.19,9.58c-3.76-0.35-6.9-0.64-10.64-0.98
		c-1.19-4.69-2.31-9.09-3.84-15.15C254.628,281.377,259.828,283.297,265.598,285.437z"/>
	<path style="fill:#FBB03B;" d="M265.218,302.977c-5.05,6.81-8.19,8.24-11.4,5.14c-1.32-1.28-2.07-5.32-1.13-6.38
		C256.658,297.267,260.268,301.437,265.218,302.977z"/>
	<path style="fill:#C1272D;" d="M261.268,67.237c-2.02,4.62-4.02,9.21-6.13,14.04c-6.15-1.09-11.96-2.82-15.93-8.4
		c-4.1-5.76-2.79-10.76,4.01-12.55C250.638,58.377,257.098,60.067,261.268,67.237z"/>
	<path style="fill:#C1272D;" d="M244.468,310.727c5.61-0.22,8.08,3,8.05,10.5s-3.67,12.62-9.2,12.91
		c-5.35,0.27-10.7-4.71-10.93-10.19C232.098,317.357,237.928,310.977,244.468,310.727z"/>
	<path style="fill:#C1272D;" d="M236.278,287.697c6.01,3.9,12.75,5.61,10.81,13.22c-1.58,6.22-7.8,2.98-13.16,6.51
		C234.848,299.677,235.498,294.227,236.278,287.697z"/>
	<path style="fill:#006837;" d="M249.988,89.357c-1.73,7.75-8.37,5.41-12.78,8.35c-2.08-2.37-3.97-4.52-6.54-7.44
		c1.37-2,2.9-4.25,4.91-7.2C240.438,85.187,245.218,87.277,249.988,89.357z"/>
	<path style="fill:#006837;" d="M234.318,268.537c8.52,2.36,7.62,7.85,6.13,14.51C232.448,279.807,235.368,273.847,234.318,268.537z
		"/>
	<path style="fill:#006837;" d="M236.328,343.577c1.24,5.48-2.33,10.59-6.85,14.28c-6.27,5.11-10.44,3.37-11.74-4.84
		c-0.23-1.44-0.28-2.9,1.1-3.66c3-5.4,6.01-10.79,9.56-17.15C230.978,335.717,235.348,339.267,236.328,343.577z"/>
	<path d="M218.458,180.427c8.24,10.02,12.38,21.4,9.69,34.65c-2.55,12.52-5.74,15.37-18.32,15.79c-1.83,0.07-3.67,0.01-5.5,0.01
		c-17.84-0.05-23.68-6-23.24-23.76c0.26-10.32,4.13-19.32,10.77-27.02C199.578,171.157,210.908,171.227,218.458,180.427z
		 M220.568,217.227c4.03-12.72,1.32-24.02-7.43-33.8c-5.13-5.75-11.04-5.79-16.14-0.12c-5.8,6.45-9.39,14.03-9.28,22.97
		c0.17,14.37,3.15,17.35,17.27,17.34c2.21,0,4.43-0.13,6.62,0.02C216.428,223.977,219.158,221.657,220.568,217.227z"/>
	<path style="fill:#662D91;" d="M227.008,65.007c4.51,16.89,4.21,17.83-7.19,23.78C215.788,81.887,217.968,74.197,227.008,65.007z"
		/>
	<path style="fill:#662D91;" d="M217.858,99.627c3.66-3.27,7.79-5.61,12.74,0.14c-4.96,5.4-9.3,10.12-13.71,14.92
		C212.768,106.227,212.758,104.187,217.858,99.627z"/>
	<path style="fill:#FBB03B;" d="M213.138,183.427c8.75,9.78,11.46,21.08,7.43,33.8c-1.41,4.43-4.14,6.75-8.96,6.41
		c-2.19-0.15-4.41-0.02-6.62-0.02c-14.12,0.01-17.1-2.97-17.27-17.34c-0.11-8.94,3.48-16.52,9.28-22.97
		C202.098,177.637,208.008,177.677,213.138,183.427z"/>
	<path style="fill:#662D91;" d="M218.458,335.147c0.1,6.26-4.68,7.41-10.98,8.74c-0.63-5.24-1.22-10.05-1.92-15.8
		c4.23-0.94,7.03-1.56,10.99-2.44C217.278,329.057,218.418,332.097,218.458,335.147z"/>
	<path style="fill:#006837;" d="M210.128,122.897c0.94,0.26,1.88,0.53,2.83,0.79c-2.42,7.41-4.83,14.82-7.71,23.65
		C195.728,134.817,206.298,129.857,210.128,122.897z"/>
	<path style="fill:#006837;" d="M209.458,351.877c2.39,1.84,1.29,5.36-2.53,7.46c-2.35-1.72-4.84-3.53-7.62-5.56
		c-3.5,2.24-6.99,4.47-12.11,7.74c-1.03-5.36-1.74-9.03-2.62-13.62c-4.26,0.85-8.51,1.71-15.4,3.08c2.83-5.85,4.69-9.72,7.55-15.67
		c5.21,8.64,11.75,9.94,19.38,10.3C200.698,345.827,205.608,348.897,209.458,351.877z"/>
	<path style="fill:#FBB03B;" d="M201.288,95.187c0.19-4.39,3.86-5.57,10.49-3.98c-0.72,7.94-2.16,10.12-6.7,8.92
		C203.418,99.687,201.218,96.847,201.288,95.187z"/>
	<path style="fill:#662D91;" d="M206.458,55.167c6.35,10.15,5.09,25.06-2.61,30.85C195.658,74.427,196.778,61.157,206.458,55.167z"
		/>
	<path style="fill:#662D91;" d="M206.908,108.627c-1.96,5.87-3.9,11.67-5.83,17.46c-0.96-0.17-1.92-0.35-2.89-0.52
		c-1.88-3.48-3.73-6.97-5.65-10.42c-3.48-6.27-3.5-6.26,2.84-12.36C198.718,104.477,202.138,106.217,206.908,108.627z"/>
	<path d="M200.638,280.087c-3.53,5.16-7.05,10.32-10.58,15.49C190.008,286.127,191.028,284.767,200.638,280.087z"/>
	<path style="fill:#662D91;" d="M200.228,326.297c-1.15,4.15-2.27,8.21-3.33,12.07c-12.18,1.06-13.76-2.04-8.32-15.88
		c1.26,0.22,2.68,0.29,3.98,0.74C194.968,324.067,197.318,325.117,200.228,326.297z"/>
	<path style="fill:#662D91;" d="M197.438,91.047c-4.87,4.86-8.82,8.82-13.1,13.1c-5.34-4.67-11.87-7.5-13.84-14.69
		C179.188,83.357,182.948,83.497,197.438,91.047z"/>
	<path style="fill:#C1272D;" d="M165.138,310.707c6.69-0.08,12.38,5.85,12.31,12.84c-0.06,5.78-4.84,10.68-10.35,10.61
		c-5.66-0.07-10.05-6.14-9.85-13.62C157.428,314.147,160.128,310.767,165.138,310.707z"/>
	<path style="fill:#006837;" d="M177.548,266.977c-3.94,6.18,0.42,13.38-7.7,15.97C167.708,273.287,167.708,273.287,177.548,266.977
		z"/>
	<path style="fill:#C1272D;" d="M173.978,288.087c0.71,6.23,1.3,11.47,1.99,17.51c-4-0.41-7.45-0.76-10.86-1.11
		C161.238,295.517,161.368,295.247,173.978,288.087z"/>
	<path style="fill:#C1272D;" d="M173.878,66.067c-2.26,9.89-9.46,13.66-18.86,15.14c-2.14-4.83-4.15-9.37-6.17-13.92
		C158.118,57.227,164.468,56.837,173.878,66.067z"/>
	<path style="fill:#C1272D;" d="M162.098,278.677c-1.44,6.05-2.48,10.45-3.6,15.18c-3.7,0.46-6.85,0.85-10.5,1.3
		c-1.29-3.21-2.45-6.07-3.81-9.46C150.018,283.417,155.188,281.387,162.098,278.677z"/>
	<path style="fill:#FBB03B;" d="M152.328,300.067c3.46-1.18,6.09,0.62,5.99,4c-0.05,1.77-2.67,4.93-4.11,4.92
		c-3.03-0.02-6.05-1.71-9.08-2.72c0.01-0.87,0.01-1.74,0.02-2.61C147.528,302.437,149.818,300.927,152.328,300.067z"/>
	<path style="fill:#C1272D;" d="M151.168,91.027c-0.02,0.52-0.04,1.04-0.07,1.56c-7.88,6.01-15.76,12.01-23.45,17.87
		c-4.81-10.35-0.61-17.21,11.93-17.89C143.458,92.357,147.308,91.557,151.168,91.027z"/>
	<path style="fill:#FBB03B;" d="M147.628,78.897c-0.89,5.95-3.12,8.24-7.49,8.26c-4.17,0.02-7.25-2.7-7.05-6.41
		c0.2-3.77,4.56-8.43,7.81-7.29C143.748,74.457,145.908,77.427,147.628,78.897z"/>
	<path style="fill:#C1272D;" d="M140.628,47.937c1.94,4.61,2.67,9.73,3.8,14.23c-5.17,3.83-8.59,6.37-11.99,8.89
		c-7.31-8.06-9.23-16.39-4.75-23.51c1.35-2.16,4.4-4.6,6.58-4.52C136.518,43.107,139.678,45.687,140.628,47.937z"/>
	<path style="fill:#C1272D;" d="M129.658,324.247c2.97-12.19,9.64-15.1,19.19-8.36C143.068,326.727,140.638,327.787,129.658,324.247
		z"/>
	<path style="fill:#C1272D;" d="M138.988,286.617c3.98,8.97,3.98,8.97-1.44,17.28c-6.68-0.55-14.84,2.45-18.05-7.3
		c2.33-3.91,4.53-7.61,6.87-11.54C130.658,285.587,134.948,286.117,138.988,286.617z"/>
	<path style="fill:#C1272D;" d="M144.128,220.667c-4.54,6.25-9.18,13.8-17.37,15.61c-7.66,1.7-16,0.36-24.48,0.36
		c-3.69-8.27-1.18-14.24,5.13-18.73c1.87-1.33,4.71-2.26,6.92-1.98C124.068,217.187,133.738,218.967,144.128,220.667z"/>
	<path style="fill:#662D91;" d="M138.598,157.097c-7.73-1.11-14.47-2.07-21.63-3.1c-0.47-6.42,3.64-8.92,8.14-10.01
		C130.338,142.727,133.148,145.777,138.598,157.097z"/>
	<path style="fill:#C1272D;" d="M127.768,77.517c0.53,1.53,0.3,3.83-0.51,5.23c-4.77,8.2-10.75,14.82-21.84,14.43
		c0-8.99,0-16.89,0-25.15C113.008,65.527,124.488,68.037,127.768,77.517z"/>
	<path style="fill:#006837;" d="M127.438,123.497c1.8,3.46,0.77,8.38-0.04,12.73c-1.75-4.65-3.15-9.47-5.33-13.91
		c-1.9-3.86-4.69-7.29-7.08-10.91c0.52-0.31,1.04-0.63,1.56-0.94C120.278,114.757,124.898,118.597,127.438,123.497z"/>
	<path style="fill:#006837;" d="M124.508,244.077c-1.91,3.04-2.82,4.48-4.15,6.6c-1.64-2.1-2.88-3.7-4.73-6.08
		C118.618,244.417,120.628,244.307,124.508,244.077z"/>
	<path style="fill:#C1272D;" d="M116.698,259.437c1.04,6.77,1.29,13.71,1.21,20.57c-0.05,3.82,0,8.37-5.13,9.84
		c-4.77,1.37-9.3,1.68-13.33-2.13c-4.8-4.52-7.84-9.98-7.14-16.53c0.96-8.99,2.73-17.88,4.59-29.52c6.43,4.07,10.99,6.36,14.77,9.57
		C114.028,253.247,116.238,256.477,116.698,259.437z"/>
	<path style="fill:#F57547;" d="M111.078,118.927c5.23,4.47,8.07,13.72,5.79,18.84c-2.91,6.55-12.29,8.3-21.22,4.37
		c-4.94-2.17-10.15-3.69-15.24-5.49v-0.01c2.34-2.97,4.61-6,7.04-8.91c2.7-3.25,5.09-7.03,8.44-9.42
		C101.068,114.597,106.818,115.287,111.078,118.927z"/>
	<path style="fill:#006837;" d="M111.658,151.877c0.1,0.72,0.2,1.44,0.3,2.16c-2.33,1.27-4.64,2.56-6.98,3.79
		c-2.23,1.17-4.48,2.29-7.38,3.76c-1.06-3.63-2.03-6.98-3.36-11.57C100.828,150.717,106.238,151.297,111.658,151.877z"/>
	<path style="fill:#006837;" d="M105.118,102.867c1.17,0.16,3.06,3.12,2.78,4.39c-0.97,4.51-4.03,4.08-7.46,2.07
		C101.088,106.387,100.118,102.207,105.118,102.867z"/>
	<path style="fill:#006837;" d="M101.738,53.077c0.29,4.31-0.46,8.69-0.79,13.02c-22.43-1.22-23.82-0.22-29.69,21.06
		c-4.39-3.17-9.39-5.75-12.91-9.66c-2.76-3.07-4.19-7.67-5.18-11.84c-0.39-1.61,2.07-3.89,3.47-6.29c4.34,3.41,7.77,6.11,11.82,9.29
		c3.67-7.45-1.06-17.18,9.56-19.66c2.38,2.8,4.82,5.66,8.09,9.5c1.97-3.5,2.87-6.42,4.81-8.18c1.92-1.73,4.94-3.18,7.39-3.04
		C99.618,47.347,101.598,50.957,101.738,53.077z"/>
	<path style="fill:#C1272D;" d="M101.728,213.457c-0.13,0.16-1.66,1.97-3.08,3.65c-8.46-0.96-16.67-1.89-26.35-2.99
		c-7.92-8.15-10.68-19.21-9.79-32.24c9.58,1.26,17.42,2.29,23.77,3.13C91.348,194.347,96.128,203.137,101.728,213.457z"/>
	<path style="fill:#F57547;" d="M93.378,72.037c5.12,16.56,3.78,25.99-6.03,42.3c-3.39-2.58-6.73-5.13-10.28-7.83
		c0.92-8.23,1.5-16.28,2.8-24.21C81.158,74.377,83.328,72.967,93.378,72.037z"/>
	<path style="fill:#FBB03B;" d="M91.418,224.807c2.31,3.99,4.94,8.36,1.04,12.87c-5.07,5.89-11.73,4.9-18.17,3.58
		C67.968,229.387,76.918,219.007,91.418,224.807z"/>
	<path style="fill:#F57547;" d="M89.988,162.207c1.33,7.97-0.85,13.16-5.7,15.09c-5.38,2.16-13.91-0.03-18.13-4.64
		c-6.51-7.11-6.75-17.6-0.64-29.73c4.83-2.24,12.19,1.2,14.89-6.28c2.06,4.67,4.3,9.28,6.14,14.05
		C87.988,154.427,89.338,158.277,89.988,162.207z"/>
	<path style="fill:#C1272D;" d="M84.988,248.907c0.01,18.13-7.38,29.66-20.43,30.09c2.03-5.44,3.96-10.58,5.88-15.73
		c-0.58-0.25-1.17-0.51-1.75-0.76c-2.85,5.22-5.7,10.44-8.55,15.65c-9.28-6.91-6.72-17.56,7.88-33.28
		C73.718,246.237,79.328,247.567,84.988,248.907z"/>
	<path style="fill:#FBB03B;" d="M82.148,124.497c0.06,6.17-4.95,12.68-9.79,12.71c-6.83,0.04-13.09-5.59-13.18-11.86
		c-0.12-7.19,3.65-11.81,9.65-11.85C77.458,113.447,82.088,117.267,82.148,124.497z"/>
	<polygon points="80.408,136.637 80.408,136.647 80.398,136.637 	"/>
	<path style="fill:#C1272D;" d="M69.708,222.417c-1.04,2.82-2.43,5.82-3.24,8.97c-1.08,4.24-3.31,6.29-7.84,5.65
		c-1.23-0.17-2.89-0.07-3.79,0.63c-4.39,3.39-8.41,5.56-13.35,0.51c-0.98-1-4.37,0.37-7.95,0.8c1.93-5.53,3.43-9.85,5.43-15.59
		c-5.85,3.26-6.07,9.01-9.23,12.48c-5.48-3.06-5.48-3.06,0.74-19.56c-1.28-0.64-2.64-1.31-4.32-2.14c1.33-5.85,5.2-8.11,10.96-8.37
		C50.618,205.187,61.608,209.667,69.708,222.417z"/>
	<path style="fill:#F57547;" d="M67.848,102.057c-3.4,2.67-6.36,4.8-9.11,7.18c-5.21,4.52-9.13,5.27-14.53,1.67
		c-7.88-5.27-11.71-12.91-11.6-22.41c0.05-4.76,2.57-7.4,7.36-7.91C53.078,79.177,64.418,87.697,67.848,102.057z"/>
	<path style="fill:#006837;" d="M54.428,181.057c0.64,6.48,1.29,12.94,2.03,20.34c-7.72-1.61-14.94-1.82-21.41-6.91
		c-3.68-2.9-9.24-3.4-14.04-5c0.74-5.05,0.74-5.05,8.79-11.83c-3.44-8.9-11.7,0.86-15.97-4.14c1.47-8.69,5.63-13.39,13.74-13.25
		c8.73,0.16,16.76-1.44,25.62-6.64c-0.22,2.8,0.07,4.29-0.46,4.7c-1.06,0.82-2.65,0.9-3.89,1.54c-6.36,3.23-10.46,11.78-8.43,17.39
		C41.948,181.547,45.048,182.387,54.428,181.057z"/>
	<path style="fill:#F57547;" d="M53.068,130.857c0.76,2.76,2.29,5.3,3.72,8.46c-4.75,6.68-11.47,10.93-19.26,13.47
		c-4.32,1.41-9.63,1.68-11.97-2.62c-1.65-3.05-1.56-7.94-0.43-11.42c3.5-10.74,15.32-18.25,26.48-17.45
		C52.048,124.427,52.208,127.737,53.068,130.857z"/>
	<path style="fill:#006837;" d="M51.138,163.797c4.04,4.66,4.04,4.66-2.86,10.94c-0.74-0.33-1.47-0.65-2.21-0.97
		C47.698,170.577,49.318,167.377,51.138,163.797z"/>
	<path style="fill:#006837;" d="M27.478,103.147c3.79,4.95,6.4,8.36,9.62,12.56c-8.21,3.67-13.06-1.49-20.53-5.26
		C20.858,107.577,23.818,105.597,27.478,103.147z"/>
	<path style="fill:#006837;" d="M13.598,131.987c4.24-10.84,4.59-11.11,14.65-10.16C22.818,126.317,21.998,133.867,13.598,131.987z"
		/>
</g>
</svg>